# xmcd
#
# Track frame offsets:
#	150
#	15597
#	28032
#	42462
#	59192
#	74415
#	91509
#	106593
#	124083
#	144994
#	159330
#	174965
#	192287
#	209891
#	231709
#	246700
#	258330
#	273118
#	286468
#	303061
#
# Disc length: 4240 seconds
#
# Revision: 0
# Processed by: cddbd v1.5.2PL0 Copyright (c) Steve Scherf et al.
# Submitted via: EasyCDDAExtractor 15.2.0.1
#
DISCID=24108e14
DTITLE=Léo Di Almeida - CD 2012
DYEAR=2012
DGENRE=
TTITLE0=Quem é
TTITLE1=Pesadelo
TTITLE2=Se eu fosse você
TTITLE3=Pra você
TTITLE4=Aeroporto
TTITLE5=Talismã
TTITLE6=Eu quebrei a cara
TTITLE7=Eu bebo e choro por você
TTITLE8=Pra não pensar em você
TTITLE9=Tão linda e tão louca
TTITLE10=Sou fã
TTITLE11=Feito eu
TTITLE12=Onde anda meu amor
TTITLE13=No mesmo bar
TTITLE14=Eu pago em dobro
TTITLE15=Hoje eu me apaixonei
TTITLE16=Tomara Deus
TTITLE17=Nosso casamento
TTITLE18=Deus eu amo essa mulher
TTITLE19=Pago pra ver
EXTD=
EXTT0=
EXTT1=
EXTT2=
EXTT3=
EXTT4=
EXTT5=
EXTT6=
EXTT7=
EXTT8=
EXTT9=
EXTT10=
EXTT11=
EXTT12=
EXTT13=
EXTT14=
EXTT15=
EXTT16=
EXTT17=
EXTT18=
EXTT19=
PLAYORDER=
